<svg height="91" viewBox="0 0 91 91" width="91" xmlns="http://www.w3.org/2000/svg" xmlns:xlink="http://www.w3.org/1999/xlink"><linearGradient id="a" gradientUnits="objectBoundingBox" x1="-.085" x2="1.062" y1="-.1" y2="1.077"><stop offset=".04" stop-color="#b5bec2"/><stop offset=".145" stop-color="#8a9ca3"/><stop offset=".176" stop-color="#8a9ca3"/><stop offset=".218" stop-color="#a5adb0"/><stop offset=".297" stop-color="#acbabd"/><stop offset=".412" stop-color="#fffffe"/><stop offset=".473" stop-color="#fffffe"/><stop offset=".521" stop-color="#bcc4c9"/><stop offset=".533" stop-color="#bcc4c9"/><stop offset=".576" stop-color="#e7ebec"/><stop offset=".577" stop-color="#e7ebec"/><stop offset=".6" stop-color="#e7ebec"/><stop offset=".608" stop-color="#dae1e3"/><stop offset=".624" stop-color="#c9d3d8"/><stop offset=".643" stop-color="#bdcad0"/><stop offset=".669" stop-color="#b6c4cb"/><stop offset=".739" stop-color="#b5c3ca"/><stop offset=".794" stop-color="#b5c3ca"/><stop offset=".809" stop-color="#afbec6"/><stop offset=".826" stop-color="#a1b1bb"/><stop offset=".842" stop-color="#8da0ac"/><stop offset=".861" stop-color="#8da0ac"/><stop offset=".909" stop-color="#9daeba"/><stop offset=".933" stop-color="#9daeba"/><stop offset=".976" stop-color="#8798a8"/><stop offset="1" stop-color="#8798a8"/></linearGradient><path d="m-5415.5 5399.545a.96.96 0 0 1 -.878-.57l-2.092-4.746a.96.96 0 0 1 .49-1.264.959.959 0 0 1 1.265.49l1.077 2.443 1.317-4.076a.958.958 0 0 1 1.2-.631.959.959 0 0 1 .634 1.2l-.008.023-2.091 6.468a.957.957 0 0 1 -.863.662zm0 17.719a.961.961 0 0 1 -.878-.573l-2.092-4.744a.96.96 0 0 1 .49-1.264.959.959 0 0 1 1.265.489l1.077 2.442 1.317-4.073a.958.958 0 0 1 1.215-.6.958.958 0 0 1 .609 1.192l-2.091 6.469a.961.961 0 0 1 -.863.663zm0 17.719a.96.96 0 0 1 -.878-.571l-2.092-4.745a.959.959 0 0 1 .49-1.264.959.959 0 0 1 1.265.491l1.077 2.442 1.317-4.075a.959.959 0 0 1 1.208-.617.96.96 0 0 1 .617 1.208l-2.091 6.467a.959.959 0 0 1 -.863.662zm15.875-55.833h-52.7a.9.9 0 0 0 -.17.018h-.019a.943.943 0 0 0 -.232.083l-.052.028a1.031 1.031 0 0 0 -.2.15l-10.219 10.219a.974.974 0 0 0 -.15.2c-.01.017-.019.034-.028.051a.934.934 0 0 0 -.083.235v.008a1 1 0 0 0 -.018.181v53.5a.96.96 0 0 0 .959.959h62.915a.959.959 0 0 0 .959-.959v-63.723a.959.959 0 0 0 -.964-.95zm-53.659 10.22h-6.944l6.944-6.946zm2.416 4.283h22.771v4.173h-22.771zm.052 17.331h22.77v4.172h-22.77zm22.82 21.5h-22.77v-4.172h22.766zm8.051-41.582a6.288 6.288 0 0 1 8.892 0 6.288 6.288 0 0 1 0 8.891 6.287 6.287 0 0 1 -8.892 0 6.286 6.286 0 0 1 -.003-8.887zm4.446 46.173a6.288 6.288 0 0 1 -6.288-6.289 6.288 6.288 0 0 1 6.288-6.286 6.288 6.288 0 0 1 6.288 6.286 6.288 6.288 0 0 1 -6.289 6.293zm0-17.72a6.288 6.288 0 0 1 -6.288-6.289 6.288 6.288 0 0 1 6.288-6.288 6.288 6.288 0 0 1 6.288 6.288 6.288 6.288 0 0 1 -6.289 6.293z" fill="url(#a)" transform="translate(5476.858 -5365.973)"/><path d="m0 0h91v91h-91z" fill="none"/></svg>