<svg height="91" viewBox="0 0 90 91" width="90" xmlns="http://www.w3.org/2000/svg" xmlns:xlink="http://www.w3.org/1999/xlink"><linearGradient id="a" gradientUnits="objectBoundingBox" x1="-.058" x2="1.008" y1="-.02" y2="1.059"><stop offset=".04" stop-color="#b5bec2"/><stop offset=".145" stop-color="#8a9ca3"/><stop offset=".176" stop-color="#8a9ca3"/><stop offset=".218" stop-color="#a5adb0"/><stop offset=".297" stop-color="#acbabd"/><stop offset=".412" stop-color="#fffffe"/><stop offset=".473" stop-color="#fffffe"/><stop offset=".521" stop-color="#bcc4c9"/><stop offset=".533" stop-color="#bcc4c9"/><stop offset=".576" stop-color="#e7ebec"/><stop offset=".577" stop-color="#e7ebec"/><stop offset=".6" stop-color="#e7ebec"/><stop offset=".608" stop-color="#dae1e3"/><stop offset=".624" stop-color="#c9d3d8"/><stop offset=".643" stop-color="#bdcad0"/><stop offset=".669" stop-color="#b6c4cb"/><stop offset=".739" stop-color="#b5c3ca"/><stop offset=".794" stop-color="#b5c3ca"/><stop offset=".809" stop-color="#afbec6"/><stop offset=".826" stop-color="#a1b1bb"/><stop offset=".842" stop-color="#8da0ac"/><stop offset=".861" stop-color="#8da0ac"/><stop offset=".909" stop-color="#9daeba"/><stop offset=".933" stop-color="#9daeba"/><stop offset=".976" stop-color="#8798a8"/><stop offset="1" stop-color="#8798a8"/></linearGradient><path d="m-5538.844 5409.195a.975.975 0 0 0 -.72-.293l-4.513.037a15.678 15.678 0 0 0 -1.632-5.975l3.918-2.285a1.007 1.007 0 0 0 .362-1.381 21.315 21.315 0 0 0 -7.784-7.73 1.013 1.013 0 0 0 -1.379.374l-1.865 3.25c-.866-12.43-9.524-22.188-26.769-22.188-13.414 0-24.379 7.642-24.095 23.175.01.536.027 1.066.076 1.6a8.018 8.018 0 0 1 -.907 4.478c-.784 1.484-2.146 4.049-5.4 10.158a2.438 2.438 0 0 0 .859 3.336 2.442 2.442 0 0 0 1.341.336l4.172.077a70.221 70.221 0 0 1 .2 8.813c-.213 5.514 1.138 7.12 5.963 7.125h8.261v10.137a1.743 1.743 0 0 0 1.86 1.6h22.535a1.744 1.744 0 0 0 1.86-1.6v-3.1c0-.05-.012-.095-.016-.143v-8.66a35.379 35.379 0 0 1 .34-4.819c.477.076.948.13 1.414.161v4.525a1.01 1.01 0 0 0 1.011 1.008 21.23 21.23 0 0 0 10.6-2.85 1.009 1.009 0 0 0 .366-1.379l-2.275-3.925a15.9 15.9 0 0 0 4.354-4.356l3.927 2.27a1.01 1.01 0 0 0 1.381-.368 21.23 21.23 0 0 0 2.839-10.608v-.072a1.008 1.008 0 0 0 -.284-.728zm-3.8 9.5-3.875-2.24a1.012 1.012 0 0 0 -1.379.369 13.794 13.794 0 0 1 -5.01 5.014 1.012 1.012 0 0 0 -.367 1.381l2.24 3.874a19.222 19.222 0 0 1 -7.7 2.067l-.006-4.459a1.022 1.022 0 0 0 -1.024-1.008 13.414 13.414 0 0 1 -2.107-.173c-.282-.046-.565-.1-.847-.16a13.642 13.642 0 0 1 -3.868-1.508 1.028 1.028 0 0 0 -.505-.134 1.012 1.012 0 0 0 -.875.505l-2.237 3.876a19.3 19.3 0 0 1 -5.638-5.619l3.871-2.251a1.007 1.007 0 0 0 .362-1.379 13.666 13.666 0 0 1 -1.859-6.851 1.012 1.012 0 0 0 -1.01-1.01l-4.454.019a19.243 19.243 0 0 1 2.042-7.692l3.88 2.232a1.012 1.012 0 0 0 1.38-.372 13.794 13.794 0 0 1 5-5.019 1.011 1.011 0 0 0 .363-1.381l-2.252-3.87a19.159 19.159 0 0 1 5.741-1.864c.663-.1 1.314-.174 1.952-.211l.012 4.453a1.05 1.05 0 0 0 1.058 1.005 13.666 13.666 0 0 1 6.8 1.824 1.01 1.01 0 0 0 1.377-.375l2.227-3.881a19.3 19.3 0 0 1 5.651 5.609l-3.869 2.257a1.012 1.012 0 0 0 -.362 1.383 13.664 13.664 0 0 1 1.875 6.864 1.006 1.006 0 0 0 .3.716 1.043 1.043 0 0 0 .719.293l4.454-.037a19.206 19.206 0 0 1 -2.063 7.75zm-17.115-20.1a11.387 11.387 0 0 0 -11.387 11.389 11.387 11.387 0 0 0 11.387 11.388 11.388 11.388 0 0 0 11.389-11.388 11.388 11.388 0 0 0 -11.392-11.389zm5.072 9.541-4.688 5.958a1.01 1.01 0 0 1 -.835.385l-.091-.007a1.016 1.016 0 0 1 -.713-.444l-2.857-4.3a1.011 1.011 0 0 1 .255-1.406 1.011 1.011 0 0 1 1.406.255.326.326 0 0 1 .022.033l2.086 3.139 3.831-4.861a1.011 1.011 0 0 1 1.419-.169 1.011 1.011 0 0 1 .162 1.417z" fill="url(#a)" transform="translate(5618.931 -5362.964)"/><path d="m0 0h90v91h-90z" fill="none"/></svg>