<svg xmlns="http://www.w3.org/2000/svg" xmlns:xlink="http://www.w3.org/1999/xlink" width="90" height="90" viewBox="0 0 90 90">
  <defs>
    <linearGradient id="linear-gradient" x1="-0.035" y1="-0.125" x2="0.951" y2="1.124" gradientUnits="objectBoundingBox">
      <stop offset="0.04" stop-color="#b5bec2"/>
      <stop offset="0.145" stop-color="#8a9ca3"/>
      <stop offset="0.176" stop-color="#8a9ca3"/>
      <stop offset="0.218" stop-color="#a5adb0"/>
      <stop offset="0.297" stop-color="#acbabd"/>
      <stop offset="0.412" stop-color="#fffffe"/>
      <stop offset="0.473" stop-color="#fffffe"/>
      <stop offset="0.521" stop-color="#bcc4c9"/>
      <stop offset="0.533" stop-color="#bcc4c9"/>
      <stop offset="0.576" stop-color="#e7ebec"/>
      <stop offset="0.577" stop-color="#e7ebec"/>
      <stop offset="0.6" stop-color="#e7ebec"/>
      <stop offset="0.608" stop-color="#dae1e3"/>
      <stop offset="0.624" stop-color="#c9d3d8"/>
      <stop offset="0.643" stop-color="#bdcad0"/>
      <stop offset="0.669" stop-color="#b6c4cb"/>
      <stop offset="0.739" stop-color="#b5c3ca"/>
      <stop offset="0.794" stop-color="#b5c3ca"/>
      <stop offset="0.809" stop-color="#afbec6"/>
      <stop offset="0.826" stop-color="#a1b1bb"/>
      <stop offset="0.842" stop-color="#8da0ac"/>
      <stop offset="0.861" stop-color="#8da0ac"/>
      <stop offset="0.909" stop-color="#9daeba"/>
      <stop offset="0.933" stop-color="#9daeba"/>
      <stop offset="0.976" stop-color="#8798a8"/>
      <stop offset="1" stop-color="#8798a8"/>
    </linearGradient>
  </defs>
  <g id="Group_1147" data-name="Group 1147" transform="translate(0.479 0.466)">
    <path id="Path_113" data-name="Path 113" d="M-5147.838,5541.9a17.013,17.013,0,0,0-1.072-5.882l4.843-1.785a22.167,22.167,0,0,0-3.89-6.669l-3.933,3.325a17.2,17.2,0,0,0-4.561-3.8l2.567-4.469a22.093,22.093,0,0,0-7.271-2.62l-.875,5.082a16.15,16.15,0,0,0-5.936.015l-.9-5.073a22.046,22.046,0,0,0-7.258,2.663l2.6,4.459a17.169,17.169,0,0,0-4.543,3.82l-3.95-3.3a22.142,22.142,0,0,0-3.852,6.693l4.854,1.755a16.966,16.966,0,0,0-1.038,5.81v.034l-5.136.012c0,.422.031.841.057,1.26a22.083,22.083,0,0,0,.748,4.622c.16.579.343,1.153.545,1.719l4.7-1.719h.167a17.059,17.059,0,0,0,2.947,5.078l-3.94,3.325a22.266,22.266,0,0,0,5.917,4.953l2.577-4.47a16.948,16.948,0,0,0,5.574,2.026l-.884,5.079a22.465,22.465,0,0,0,7.712-.009l-.894-5.075a17,17,0,0,0,5.568-2.035l2.586,4.461a22.211,22.211,0,0,0,5.905-4.962l-3.942-3.312a17.168,17.168,0,0,0,2.965-5.144l4.847,1.765a22.155,22.155,0,0,0,1.336-7.606v-.076Zm-17.107,9.472a9.447,9.447,0,0,1-9.446-9.447,9.446,9.446,0,0,1,9.446-9.445,9.446,9.446,0,0,1,9.446,9.445h0A9.456,9.456,0,0,1-5164.946,5551.371Zm-4.483-9.292a4.5,4.5,0,0,1,4.481-4.479h0a4.494,4.494,0,0,1,4.481,4.479h0a4.471,4.471,0,0,1-4.458,4.482h-.023a4.47,4.47,0,0,1-4.481-4.458Zm54.63,23.377a12.5,12.5,0,0,0-1.719-6.305l4.076-2.375a17.354,17.354,0,0,0-6.344-6.3l-2.348,4.092a12.489,12.489,0,0,0-6.249-1.676h-.04l-.014-4.7a17.6,17.6,0,0,0-8.636,2.338l2.374,4.078a12.667,12.667,0,0,0-4.591,4.612l-4.088-2.351a17.3,17.3,0,0,0-2.292,8.612v.028l4.7-.02a12.5,12.5,0,0,0,1.708,6.294l-4.079,2.371a17.372,17.372,0,0,0,6.331,6.312l2.357-4.086a12.574,12.574,0,0,0,3.554,1.383,12.3,12.3,0,0,0,2.718.307h.014l0,4.7a17.281,17.281,0,0,0,8.641-2.322l-2.365-4.083a12.641,12.641,0,0,0,4.6-4.6l4.085,2.361a17.3,17.3,0,0,0,2.313-8.643v-.057Zm-12.586,5.082a4.657,4.657,0,0,1-4.638-4.671,4.656,4.656,0,0,1,4.638-4.668,4.691,4.691,0,0,1,4.7,4.668A4.693,4.693,0,0,1-5127.384,5570.538Z" transform="translate(5193.63 -5506.252)" fill="url(#linear-gradient)"/>
    <rect id="Rectangle_1134" data-name="Rectangle 1134" width="90" height="90" transform="translate(-0.479 -0.466)" fill="none"/>
  </g>
</svg>
