<svg height="90" viewBox="0 0 90 90" width="90" xmlns="http://www.w3.org/2000/svg" xmlns:xlink="http://www.w3.org/1999/xlink"><linearGradient id="a" gradientUnits="objectBoundingBox" x1=".011" x2="1.136" y1=".011" y2=".992"><stop offset=".04" stop-color="#b5bec2"/><stop offset=".145" stop-color="#8a9ca3"/><stop offset=".176" stop-color="#8a9ca3"/><stop offset=".218" stop-color="#a5adb0"/><stop offset=".297" stop-color="#acbabd"/><stop offset=".412" stop-color="#fffffe"/><stop offset=".473" stop-color="#fffffe"/><stop offset=".521" stop-color="#bcc4c9"/><stop offset=".533" stop-color="#bcc4c9"/><stop offset=".576" stop-color="#e7ebec"/><stop offset=".577" stop-color="#e7ebec"/><stop offset=".6" stop-color="#e7ebec"/><stop offset=".608" stop-color="#dae1e3"/><stop offset=".624" stop-color="#c9d3d8"/><stop offset=".643" stop-color="#bdcad0"/><stop offset=".669" stop-color="#b6c4cb"/><stop offset=".739" stop-color="#b5c3ca"/><stop offset=".794" stop-color="#b5c3ca"/><stop offset=".809" stop-color="#afbec6"/><stop offset=".826" stop-color="#a1b1bb"/><stop offset=".842" stop-color="#8da0ac"/><stop offset=".861" stop-color="#8da0ac"/><stop offset=".909" stop-color="#9daeba"/><stop offset=".933" stop-color="#9daeba"/><stop offset=".976" stop-color="#8798a8"/><stop offset="1" stop-color="#8798a8"/></linearGradient><path d="m-5438.156 5514.313v-7.252a1.09 1.09 0 0 1 1.118-1.059 1.088 1.088 0 0 1 1.059 1.059v7.252a1.088 1.088 0 0 1 -1.088 1.088 1.089 1.089 0 0 1 -1.089-1.088zm-17.418 8.116a1.084 1.084 0 0 0 .77.319 1.086 1.086 0 0 0 .768-.317 1.088 1.088 0 0 0 0-1.541l-5.129-5.127a1.087 1.087 0 0 0 -1.54 0 1.086 1.086 0 0 0 0 1.539zm37.014 33.936a1.09 1.09 0 0 0 -1.539 0 1.089 1.089 0 0 0 0 1.539l5.127 5.127a1.088 1.088 0 0 0 .77.32 1.089 1.089 0 0 0 .768-.318 1.09 1.09 0 0 0 0-1.54zm-42.532-16.939a1.09 1.09 0 0 0 -1.06-1.118h-7.309a1.091 1.091 0 0 0 -1.06 1.118 1.089 1.089 0 0 0 1.117 1.059h7.252a1.088 1.088 0 0 0 1.06-1.059zm56.362-1.118h-7.253a1.09 1.09 0 0 0 -1.06 1.06 1.088 1.088 0 0 0 1.06 1.117h7.253a1.089 1.089 0 0 0 1.06-1.059 1.09 1.09 0 0 0 -1.06-1.118zm-50.844 18.057-5.128 5.128a1.086 1.086 0 0 0 -.317.768 1.089 1.089 0 0 0 1.086 1.091 1.087 1.087 0 0 0 .771-.32l5.129-5.127a1.087 1.087 0 0 0 0-1.539 1.088 1.088 0 0 0 -1.542-.001zm36.244-33.617a1.083 1.083 0 0 0 .77-.319l5.129-5.127a1.091 1.091 0 0 0 0-1.539 1.087 1.087 0 0 0 -1.541 0l-5.127 5.127a1.1 1.1 0 0 0 -.319.768 1.091 1.091 0 0 0 1.087 1.09zm-8.139-5.438a1.087 1.087 0 0 0 1.006-.667l2.775-6.7a1.087 1.087 0 0 0 -.587-1.424 1.089 1.089 0 0 0 -1.424.586l-2.773 6.7a1.078 1.078 0 0 0 -.084.416 1.088 1.088 0 0 0 1.087 1.089zm-20.2-.67a1.087 1.087 0 0 0 1 .67 1.094 1.094 0 0 0 .417-.083 1.089 1.089 0 0 0 .588-1.423l-2.774-6.7a1.09 1.09 0 0 0 -1.425-.587 1.089 1.089 0 0 0 -.587 1.424zm40.895 34.127-6.7-2.775a1.088 1.088 0 0 0 -1.422.588 1.088 1.088 0 0 0 .588 1.422l6.7 2.775a1.1 1.1 0 0 0 .417.084 1.092 1.092 0 0 0 1.009-.674 1.089 1.089 0 0 0 -.595-1.42zm-60.583-22.735 6.7 2.775a1.075 1.075 0 0 0 .415.084 1.087 1.087 0 0 0 1.006-.672 1.09 1.09 0 0 0 -.589-1.424l-6.7-2.774a1.086 1.086 0 0 0 -1.422.588 1.089 1.089 0 0 0 .587 1.423zm52.378 1.769a1.089 1.089 0 0 0 1.089 1.09 1.087 1.087 0 0 0 .417-.084l6.7-2.775a1.09 1.09 0 0 0 .589-1.422 1.086 1.086 0 0 0 -1.422-.588l-6.7 2.774a1.094 1.094 0 0 0 -.675 1.004zm-44.255 18.779a1.088 1.088 0 0 0 -1.421-.588l-6.7 2.775a1.089 1.089 0 0 0 -.674 1.008 1.089 1.089 0 0 0 1.091 1.086 1.083 1.083 0 0 0 .416-.084l6.7-2.775a1.088 1.088 0 0 0 .586-1.422zm37.416.456a35.3 35.3 0 0 0 -5.941 18.985 1.086 1.086 0 0 1 1.052 1.083v4.027a10.375 10.375 0 0 1 -10.362 10.362h-.151a10.374 10.374 0 0 1 -10.362-10.362v-4.031a1.089 1.089 0 0 1 1.084-1.087 33.972 33.972 0 0 0 -5.785-18.746 18.238 18.238 0 0 1 -3.089-10.163 18.244 18.244 0 0 1 18.248-18.241 18.246 18.246 0 0 1 18.242 18.248 18.151 18.151 0 0 1 -2.938 9.925zm-20.04-7.019 3.427 7.38a1.087 1.087 0 0 0 .99.631h.019a1.09 1.09 0 0 0 .984-.662l4.676-10.949a1.089 1.089 0 0 0 -.574-1.429 1.088 1.088 0 0 0 -1.429.574l-3.719 8.707-2.4-5.167a1.089 1.089 0 0 0 -1.394-.512 1.089 1.089 0 0 0 -.582 1.427zm12.978 28.175h-16.523v2.939a8.2 8.2 0 0 0 8.186 8.186h.152a8.2 8.2 0 0 0 8.186-8.186z" fill="url(#a)" transform="translate(5481.54 -5499.248)"/><path d="m0 0h90v90h-90z" fill="none"/></svg>