<svg height="91" viewBox="0 0 90 91" width="90" xmlns="http://www.w3.org/2000/svg" xmlns:xlink="http://www.w3.org/1999/xlink"><linearGradient id="a" gradientUnits="objectBoundingBox" x1="-.1" x2=".951" y1=".089" y2="1.1"><stop offset=".04" stop-color="#b5bec2"/><stop offset=".145" stop-color="#8a9ca3"/><stop offset=".176" stop-color="#8a9ca3"/><stop offset=".218" stop-color="#a5adb0"/><stop offset=".297" stop-color="#acbabd"/><stop offset=".412" stop-color="#fffffe"/><stop offset=".473" stop-color="#fffffe"/><stop offset=".521" stop-color="#bcc4c9"/><stop offset=".533" stop-color="#bcc4c9"/><stop offset=".576" stop-color="#e7ebec"/><stop offset=".577" stop-color="#e7ebec"/><stop offset=".6" stop-color="#e7ebec"/><stop offset=".608" stop-color="#dae1e3"/><stop offset=".624" stop-color="#c9d3d8"/><stop offset=".643" stop-color="#bdcad0"/><stop offset=".669" stop-color="#b6c4cb"/><stop offset=".739" stop-color="#b5c3ca"/><stop offset=".794" stop-color="#b5c3ca"/><stop offset=".809" stop-color="#afbec6"/><stop offset=".826" stop-color="#a1b1bb"/><stop offset=".842" stop-color="#8da0ac"/><stop offset=".861" stop-color="#8da0ac"/><stop offset=".909" stop-color="#9daeba"/><stop offset=".933" stop-color="#9daeba"/><stop offset=".976" stop-color="#8798a8"/><stop offset="1" stop-color="#8798a8"/></linearGradient><path d="m-5256.376 5437.012c0 .02-.013.037-.018.057a1.835 1.835 0 0 1 -.086.277.148.148 0 0 0 -.009.022 1.754 1.754 0 0 1 -.369.544l-5.634 5.635a1.772 1.772 0 0 1 -2.507 0 1.775 1.775 0 0 1 0-2.508l2.609-2.609h-6.708v.364a1.773 1.773 0 0 1 -1.773 1.772 1.772 1.772 0 0 1 -1.772-1.772v-.364h-16.87v.364a1.773 1.773 0 0 1 -1.772 1.772 1.772 1.772 0 0 1 -1.772-1.772v-.364h-16.87v.364a1.773 1.773 0 0 1 -1.772 1.772 1.773 1.773 0 0 1 -1.773-1.772v-.364h-8.6a1.774 1.774 0 0 1 -1.772-1.771v-9.171h-.544a1.772 1.772 0 0 1 -1.767-1.777 1.772 1.772 0 0 1 1.778-1.767h.533v-15.244h-.544a1.774 1.774 0 0 1 -1.767-1.779 1.772 1.772 0 0 1 1.778-1.767h.533v-15.243h-.544a1.773 1.773 0 0 1 -1.767-1.778 1.773 1.773 0 0 1 1.778-1.767h.533v-10.666l-2.609 2.611a1.772 1.772 0 0 1 -2.506 0 1.773 1.773 0 0 1 0-2.506l5.635-5.634a1.515 1.515 0 0 1 .132-.107c.045-.035.087-.079.135-.111s.11-.062.167-.09a1.268 1.268 0 0 1 .141-.074 1.713 1.713 0 0 1 .166-.052 1.531 1.531 0 0 1 .167-.049 1.627 1.627 0 0 1 .207-.021c.046 0 .091-.013.138-.013s.092.011.139.013a1.612 1.612 0 0 1 .206.021 1.539 1.539 0 0 1 .166.049 1.4 1.4 0 0 1 .168.052c.046.02.089.046.135.07a1.853 1.853 0 0 1 .173.094c.039.026.071.06.108.089a1.538 1.538 0 0 1 .159.129l5.635 5.635a1.772 1.772 0 0 1 0 2.506 1.772 1.772 0 0 1 -2.507 0l-2.608-2.609v10.666h.543a1.775 1.775 0 0 1 1.767 1.779 1.771 1.771 0 0 1 -1.777 1.766h-.533v15.244h.543a1.772 1.772 0 0 1 1.767 1.778 1.772 1.772 0 0 1 -1.777 1.767h-.533v15.244h.543a1.771 1.771 0 0 1 1.767 1.777 1.773 1.773 0 0 1 -1.777 1.767h-.533v7.4h6.83v-.7a1.773 1.773 0 0 1 1.773-1.773 1.773 1.773 0 0 1 1.772 1.773v.7h16.869v-.7a1.774 1.774 0 0 1 1.772-1.773 1.773 1.773 0 0 1 1.773 1.773v.7h16.869v-.7a1.773 1.773 0 0 1 1.773-1.773 1.773 1.773 0 0 1 1.771 1.773v.7h6.708l-2.609-2.608-.024-.024a1.773 1.773 0 0 1 .025-2.506 1.772 1.772 0 0 1 2.506.024l5.634 5.634a1.713 1.713 0 0 1 .208.254l.008.008a1.714 1.714 0 0 1 .141.262.33.33 0 0 1 .023.042 1.709 1.709 0 0 1 .083.269c.006.022.016.042.021.064a1.789 1.789 0 0 1 -.005.702zm-43.193-54.581h-10.685v43.636h10.685zm15.412 5.707h-10.685v37.929h10.685zm15.413 6.311h-10.686v31.618h10.686z" fill="url(#a)" transform="translate(5337.612 -5360.814)"/><path d="m0 0h90v91h-90z" fill="none"/></svg>