<svg height="91" viewBox="0 0 91 91" width="91" xmlns="http://www.w3.org/2000/svg" xmlns:xlink="http://www.w3.org/1999/xlink"><linearGradient id="a" gradientUnits="objectBoundingBox" x1="-.13" x2="1.047" y1="-.074" y2="1.05"><stop offset=".04" stop-color="#b5bec2"/><stop offset=".145" stop-color="#8a9ca3"/><stop offset=".176" stop-color="#8a9ca3"/><stop offset=".218" stop-color="#a5adb0"/><stop offset=".297" stop-color="#acbabd"/><stop offset=".412" stop-color="#fffffe"/><stop offset=".473" stop-color="#fffffe"/><stop offset=".521" stop-color="#bcc4c9"/><stop offset=".533" stop-color="#bcc4c9"/><stop offset=".576" stop-color="#e7ebec"/><stop offset=".577" stop-color="#e7ebec"/><stop offset=".6" stop-color="#e7ebec"/><stop offset=".608" stop-color="#dae1e3"/><stop offset=".624" stop-color="#c9d3d8"/><stop offset=".643" stop-color="#bdcad0"/><stop offset=".669" stop-color="#b6c4cb"/><stop offset=".739" stop-color="#b5c3ca"/><stop offset=".794" stop-color="#b5c3ca"/><stop offset=".809" stop-color="#afbec6"/><stop offset=".826" stop-color="#a1b1bb"/><stop offset=".842" stop-color="#8da0ac"/><stop offset=".861" stop-color="#8da0ac"/><stop offset=".909" stop-color="#9daeba"/><stop offset=".933" stop-color="#9daeba"/><stop offset=".976" stop-color="#8798a8"/><stop offset="1" stop-color="#8798a8"/></linearGradient><path d="m-5552.811 5535.218h-35.412c-10.136 11.6-15.679 26.141-14.162 38.881.682 5.1 7.516 8.825 13.506 8.825h36.724c5.99 0 12.824-3.721 13.506-8.825 1.518-12.74-4.025-27.278-14.162-38.881zm-17.517 36.712a12.939 12.939 0 0 1 -12.946-12.93 12.94 12.94 0 0 1 12.933-12.947h.1a12.9 12.9 0 0 1 12.847 12.947 12.94 12.94 0 0 1 -12.933 12.931zm17.657-38.674h-35.436l-3.5-17.256h42.446q-1.755 8.627-3.509 17.256zm-14.835 23.326a.981.981 0 0 0 .981-.981v-.067a3.069 3.069 0 0 0 -2.835-3.051v-1.508a.98.98 0 0 0 -.98-.98.98.98 0 0 0 -.98.98v1.508a3.067 3.067 0 0 0 -2.834 3.051v1.482a3.078 3.078 0 0 0 3.072 3.075h1.483a1.113 1.113 0 0 1 1.114 1.111v1.484a1.116 1.116 0 0 1 -1.114 1.113h-1.483a1.115 1.115 0 0 1 -1.112-1.113.981.981 0 0 0 -.981-.98.979.979 0 0 0 -.979.98 3.067 3.067 0 0 0 2.834 3.05v1.279a.98.98 0 0 0 .98.979.98.98 0 0 0 .98-.979v-1.279a3.069 3.069 0 0 0 2.835-3.05v-1.486a3.078 3.078 0 0 0 -3.075-3.073h-1.483a1.114 1.114 0 0 1 -1.112-1.113v-1.482a1.114 1.114 0 0 1 1.112-1.114h1.483a1.116 1.116 0 0 1 1.114 1.114v.067a.98.98 0 0 0 .98.984z" fill="url(#a)" transform="translate(5616.145 -5503.437)"/><path d="m0 0h91v91h-91z" fill="none"/></svg>