<svg id="fb5fd2c6-d270-454b-be42-34077e955de4" data-name="レイヤー 1" xmlns="http://www.w3.org/2000/svg" xmlns:xlink="http://www.w3.org/1999/xlink" viewBox="0 0 111 111"><defs><style>.fe291a2c-c98d-4117-8518-be82eda86b7b{fill:none;}.e14a5168-8f2c-4523-9e5b-8b353a11fc22{fill:url(#aa962a1c-9674-4735-8cfb-c5c4e571c6db);}.b6b33418-f790-41bc-badc-623220c4fde6{fill:url(#fc5f933c-98f6-4ed3-85ec-0c23a4148e84);}</style><linearGradient id="aa962a1c-9674-4735-8cfb-c5c4e571c6db" x1="5954.96" y1="4627.2" x2="5957.39" y2="4629.31" gradientTransform="matrix(52.69, 0, 0, -52.69, -313763.65, 243901.34)" gradientUnits="userSpaceOnUse"><stop offset="0" stop-color="#7b9caa"/><stop offset="0.45" stop-color="#e5ecff"/><stop offset="0.78" stop-color="#7993ae"/><stop offset="1" stop-color="#69879c"/></linearGradient><linearGradient id="fc5f933c-98f6-4ed3-85ec-0c23a4148e84" x1="1.79" y1="96.62" x2="101.11" y2="0.85" gradientTransform="matrix(1, 0, 0, 1, 0, 0)" xlink:href="#aa962a1c-9674-4735-8cfb-c5c4e571c6db"/></defs><rect id="a2dd439e-15d2-49f6-9924-dff7863eb713" data-name="長方形 1143" class="fe291a2c-c98d-4117-8518-be82eda86b7b" width="111" height="111"/><g id="b7370154-326e-42d0-9e25-fb4f023fb456" data-name="グループ 1156"><path id="ad2479e2-a83a-416f-bccc-cf082c921d32" data-name="パス 117" class="e14a5168-8f2c-4523-9e5b-8b353a11fc22" d="M55.5,71.17A26.35,26.35,0,1,0,29.15,44.83,26.38,26.38,0,0,0,55.5,71.17Zm6.09-2.32c5.18-4,8.84-12.86,9-23.24h9.65A24.82,24.82,0,0,1,61.59,68.84Zm18.67-24.8H70.61c-.16-10.31-3.75-19.15-8.85-23.2A24.82,24.82,0,0,1,80.26,44Zm-24-24c7,.73,12.56,11.13,12.77,24H56.28Zm0,25.52H69.05c-.23,12.78-5.8,23.14-12.77,23.87ZM54.72,69.48c-7-.73-12.53-11.09-12.77-23.87H54.72Zm0-25.43H42c.21-12.83,5.79-23.23,12.77-24Zm-5.48-23.2c-5.1,4-8.69,12.89-8.85,23.2H30.74a24.82,24.82,0,0,1,18.5-23.2ZM40.39,45.61c.18,10.38,3.84,19.26,9,23.24A24.82,24.82,0,0,1,30.74,45.61Z"/><path id="efea62b3-f336-4fff-8759-57753f7dab1d" data-name="パス 118" class="b6b33418-f790-41bc-badc-623220c4fde6" d="M102,6.81H9A3,3,0,0,0,6.19,9.89V79.76A3,3,0,0,0,9,82.84H44v5.84a9.56,9.56,0,0,1-9.56,9.57v5.94H76.58V98.25A10.47,10.47,0,0,1,66.11,87.79h0V82.84H102a3,3,0,0,0,2.85-3.08V9.89A3,3,0,0,0,102,6.81ZM99.11,76.68H11.89V13H99.11Z"/></g></svg>