<svg id="acdbfe34-eb92-4c28-90ba-c51ca8519815" data-name="レイヤー 1" xmlns="http://www.w3.org/2000/svg" xmlns:xlink="http://www.w3.org/1999/xlink" viewBox="0 0 111 111"><defs><style>.a36f5a40-b377-4892-934c-c13206b508e5{fill:url(#b2cc4d6e-db7c-40ab-a794-baa4b3d470b6);}.b3cad890-cf9f-46ae-9c5f-59306fc3a445{fill:none;}</style><linearGradient id="b2cc4d6e-db7c-40ab-a794-baa4b3d470b6" x1="5.1" y1="89.57" x2="115.95" y2="14.64" gradientUnits="userSpaceOnUse"><stop offset="0" stop-color="#7b9caa"/><stop offset="0.45" stop-color="#e5ecff"/><stop offset="0.78" stop-color="#7993ae"/><stop offset="1" stop-color="#69879c"/></linearGradient></defs><g id="ac054e2e-fe12-470b-8af7-43ab4797c480" data-name="グループ 1183"><path id="fbb7b8e4-39fb-4573-b356-abef1a963ff5" data-name="パス 125" class="a36f5a40-b377-4892-934c-c13206b508e5" d="M104.81,21.9V20.57A3,3,0,0,0,102,17.49H9a3,3,0,0,0-2.85,3.08V21.9H16.93V30H6.19V81H16.93V89.1H6.19v1.33A3,3,0,0,0,9,93.51H102a3,3,0,0,0,2.85-3.08V89.1H94.07V81h10.74V30H94.07V21.9ZM49,21.9H62V30H49ZM39.45,89.1H26.51V81H39.45Zm0-59.1H26.51V21.91H39.45ZM62,89.1H49V81H62ZM47.57,67.85V43.15L68.25,55.5ZM84.48,89.1H71.55V81H84.48Zm0-59.1H71.55V21.91H84.48Z"/></g><rect id="b0ee49df-0b46-46fd-8b10-52011f9d2657" data-name="長方形 1143" class="b3cad890-cf9f-46ae-9c5f-59306fc3a445" width="111" height="111"/></svg>