<svg id="e2c5fb81-72b0-4d46-8559-9396c49c97d5" data-name="レイヤー 1" xmlns="http://www.w3.org/2000/svg" xmlns:xlink="http://www.w3.org/1999/xlink" viewBox="0 0 111 111"><defs><style>.b6d21c97-eca0-4ceb-97b7-15ec05877296{fill:none;}.ab30f06d-710e-40e6-8773-b0db4d67fff6{fill:url(#f3cba446-e8ce-4ab6-8b91-446696044c9d);}</style><linearGradient id="f3cba446-e8ce-4ab6-8b91-446696044c9d" x1="6148.32" y1="4600.6" x2="6148.95" y2="4601.25" gradientTransform="matrix(104.6, 0, 0, -86.97, -643105.41, 400195.38)" gradientUnits="userSpaceOnUse"><stop offset="0" stop-color="#7b9caa"/><stop offset="0.45" stop-color="#e5ecff"/><stop offset="0.78" stop-color="#7993ae"/><stop offset="1" stop-color="#69879c"/></linearGradient></defs><g id="ac8019fe-6dbe-4675-b0fa-d7ebc9da012d" data-name="グループ 1185"><rect id="b5f292ff-84de-4a78-b0c3-558286c38fb1" data-name="長方形 1145" class="b6d21c97-eca0-4ceb-97b7-15ec05877296" width="111" height="111"/><path id="a22eaae4-7841-41df-8033-f63345282862" data-name="パス 120" class="ab30f06d-710e-40e6-8773-b0db4d67fff6" d="M107.29,40.85,79,12.53a1.74,1.74,0,0,0-2.48,0h0L68,21.07a1.74,1.74,0,0,0,0,2.48l1.76,1.76-1.38,1.38a15.26,15.26,0,0,1-9.58,4.57,10.36,10.36,0,0,0-6.41,2.86l-4,4.19-6.88-6.88,1.56-1.57a1.74,1.74,0,0,0,0-2.47h0l-8.54-8.55a1.74,1.74,0,0,0-2.48,0L3.71,47.16a1.74,1.74,0,0,0,0,2.48l8.54,8.54a1.74,1.74,0,0,0,2.48,0l1.69-1.69,5.93,5.93A9.48,9.48,0,0,1,25,69.33a10.44,10.44,0,0,0,2.85,7.19l9.41,9.41s0,0,.05,0a6.91,6.91,0,0,0,.51.57L48.11,96.86a7.25,7.25,0,0,0,10.27,0,7.12,7.12,0,0,0,2-4,7.24,7.24,0,0,0,10.32-5.8,7.41,7.41,0,0,0,2.19.33,7.25,7.25,0,0,0,6-11.4,7.23,7.23,0,0,0,5.78-7c.07,0,.14-.09.21-.15L86,67.71a10.44,10.44,0,0,0,2.82-6.42,13.64,13.64,0,0,1,3.78-8.74l2.17-2.18,1.5,1.5a1.74,1.74,0,0,0,2.48,0l8.54-8.54A1.77,1.77,0,0,0,107.29,40.85ZM80.05,71.58a3.78,3.78,0,0,1-5.33,0l-11-10.88a3.91,3.91,0,0,1-.37-.44,1.75,1.75,0,0,0-2.44-.37h0a1.29,1.29,0,0,0-.21.19l0,0,0,0a1.29,1.29,0,0,0-.19.21,1.74,1.74,0,0,0,.37,2.44h0a4.94,4.94,0,0,1,.44.36L75.57,77.5a3.76,3.76,0,0,1,0,5.32,3.83,3.83,0,0,1-5.32,0L68.73,81.3a.94.94,0,0,0-.1-.1L55.92,68.49a5.37,5.37,0,0,1-.37-.44,1.75,1.75,0,0,0-2.44-.37h0a1.29,1.29,0,0,0-.21.19l0,0,0,0a1.29,1.29,0,0,0-.19.21A1.76,1.76,0,0,0,53,70.6a3.73,3.73,0,0,1,.43.36h0L66.21,83.73A3.76,3.76,0,0,1,60.84,89L48.13,76.28a3,3,0,0,1-.37-.43,1.76,1.76,0,0,0-2.45-.38h0a1.68,1.68,0,0,0-.21.18l0,0,0,0a2,2,0,0,0-.2.21,1.76,1.76,0,0,0,.37,2.45,3.83,3.83,0,0,1,.44.36L55.9,89.07a3.76,3.76,0,0,1-5.32,5.32L40.33,84.07a3.67,3.67,0,0,1-.37-.43,1.56,1.56,0,0,0-.39-.38l-9.21-9.21a6.8,6.8,0,0,1-1.82-4.67A13,13,0,0,0,24.82,60L19,54.15,39.14,34,46,40.85l-.86.9-.63.45c-2.6,1.84-3.39,2.41-3.69,2.64L32.7,49.92a2.34,2.34,0,0,0-.31.24c-4.24,4.25-2.5,7.55-1.08,9.13a6.78,6.78,0,0,0,5.22,2.17,12.21,12.21,0,0,0,5.14-1.26l10.54-5.73a21.62,21.62,0,0,0,6.86,1.21,14.81,14.81,0,0,0,8.11-2.25L80.05,66.25a3.76,3.76,0,0,1,0,5.32Zm10.07-21.5a17.05,17.05,0,0,0-4.79,11,6.89,6.89,0,0,1-1.74,4.1,7.5,7.5,0,0,0-1.07-1.38L69.82,51.12a7.85,7.85,0,0,0,2-4.9,1.75,1.75,0,0,0-1.75-1.75h0a1.75,1.75,0,0,0-1.75,1.75,5.66,5.66,0,0,1-2.75,4.09c-3.24,2.25-7.95,2.48-12.92.62h0l-.19-.05-.15,0h-.34a1,1,0,0,0-.17,0,.51.51,0,0,0-.17,0l-.15,0-.17.07,0,0-11.12,6c-2.63,1.25-5,1.2-6.17-.11-.58-.66-1.55-1.74.82-4.19l8-5a2.07,2.07,0,0,0,.24-.17c.35-.29,2.64-1.9,3.51-2.52l.81-.57a1.8,1.8,0,0,0,.21-.19h0l0,0h0l2.07-2.18h0l5.2-5.49A6.87,6.87,0,0,1,59,34.75a18.76,18.76,0,0,0,11.8-5.59l1.38-1.38L92.3,47.9Z"/></g></svg>