<svg id="ba60cb8d-b91e-4dd3-b45b-3ea2fd8b8f9c" data-name="レイヤー 1" xmlns="http://www.w3.org/2000/svg" xmlns:xlink="http://www.w3.org/1999/xlink" viewBox="0 0 111 111"><defs><style>.aec2a990-15ec-4b48-96c4-088b887745e5{fill:none;}.a8953a2f-f0e5-4f69-aaa3-690e65c30dbb{fill:url(#e30b2f92-fcad-4183-95d8-699a045a2ade);}</style><linearGradient id="e30b2f92-fcad-4183-95d8-699a045a2ade" x1="13.02" y1="107.1" x2="98.53" y2="37.7" gradientUnits="userSpaceOnUse"><stop offset="0.45" stop-color="#e5ecff"/><stop offset="0.78" stop-color="#7993ae"/><stop offset="1" stop-color="#69879c"/></linearGradient></defs><rect id="fcd5f414-f6cf-421a-bba9-4b4e060b3d22" data-name="長方形 1143" class="aec2a990-15ec-4b48-96c4-088b887745e5" width="111" height="111"/><path class="a8953a2f-f0e5-4f69-aaa3-690e65c30dbb" d="M104.92,42.4a1.49,1.49,0,0,0,0-.36s0-.07,0-.11a2.29,2.29,0,0,0-.1-.23.76.76,0,0,0-.08-.11l-.14-.18-.11-.09-.08-.08L56.33,7a1.41,1.41,0,0,0-1.66,0l-48,34.24a.6.6,0,0,0-.08.08l-.11.09-.14.18a.76.76,0,0,0-.08.11,2.29,2.29,0,0,0-.1.23s0,.07,0,.11a1.5,1.5,0,0,0,0,.37h0v60.43a1.43,1.43,0,0,0,1.43,1.43h96a1.43,1.43,0,0,0,1.43-1.43V42.41ZM55.5,9.92,101,42.41,96,46,85.92,53.19l-2.41,1.72v-9a1.12,1.12,0,0,0,0-.32.43.43,0,0,1,0,0,1.2,1.2,0,0,0-.13-.31l0-.07a1.37,1.37,0,0,0-.24-.29l0,0-10.7-9.77,0,0A1.51,1.51,0,0,0,72,34.9l-.07,0a1.23,1.23,0,0,0-.34-.11h-.08l-.17,0H28a1.43,1.43,0,0,0-1.43,1.43V54.23L11.62,43.59,10,42.41ZM50.87,64.16V49.3l12.44,7.43ZM72.81,44.51V39.4l5.59,5.11Zm29.25,56.9H8.94V45.18L54.67,77.81a1.41,1.41,0,0,0,1.66,0l26.58-19h0l6.7-4.78,12.45-8.89Z"/></svg>